<svg width="32" height="32" fill="none" xmlns="http://www.w3.org/2000/svg"><rect width="32" height="32" rx="8" fill="#06F"/><path d="M23.244 20.442a7.5 7.5 0 1 0-14.488 0" stroke="#fff" stroke-width="1.6" stroke-linecap="round"/><path d="M16.638 18.985c.406.591.12 1.493-.638 2.014-.758.521-1.702.465-2.108-.126-.434-.63-1.929-4.173-2.836-6.364-.17-.413.333-.76.658-.452 1.72 1.633 4.492 4.298 4.924 4.928ZM16 11v1.667m-5.303.53 1.178 1.178m9.428-1.178-1.178 1.178m3.12 6.067-1.61-.432m-12.88.432 1.61-.432" stroke="#fff" stroke-width="1.5" stroke-linecap="round"/></svg>